<svg width="240" height="84" viewBox="0 0 240 84" fill="none" xmlns="http://www.w3.org/2000/svg">
<path d="M19.8854 24.0589C19.9547 24.0957 20.0357 24.1033 20.1106 24.0802C20.1856 24.0571 20.2484 24.0051 20.2854 23.9355C20.6554 23.2297 21.1345 22.5875 21.7047 22.0329C21.7282 22.0022 21.741 21.9645 21.741 21.9257C21.741 21.887 21.7282 21.8493 21.7047 21.8186C21.7382 21.8439 21.7789 21.8576 21.8208 21.8576C21.8627 21.8576 21.9034 21.8439 21.9369 21.8186L23.982 20.5199H24.0143L24.0659 20.4809C24.1518 20.4057 24.2047 20.2993 24.2131 20.1851C24.2216 20.0708 24.1849 19.9577 24.111 19.8705C24.0354 19.785 23.9293 19.733 23.8158 19.7257C23.7022 19.7184 23.5904 19.7564 23.5046 19.8315C22.8595 20.377 22.2595 20.9484 21.6466 21.5004C21.6114 21.5324 21.5878 21.5754 21.5796 21.6225C21.5715 21.6695 21.5791 21.718 21.6014 21.7602C21.5702 21.7384 21.533 21.7267 21.495 21.7267C21.457 21.7267 21.4198 21.7384 21.3886 21.7602C20.7312 22.2942 20.1647 22.9324 19.7112 23.6498C19.6936 23.6879 19.6841 23.7293 19.6835 23.7713C19.6829 23.8133 19.691 23.8549 19.7075 23.8935C19.7239 23.9321 19.7482 23.9668 19.7789 23.9953C19.8096 24.0238 19.8458 24.0455 19.8854 24.0589Z" fill="#4DE1E3"/>
<path d="M19.3628 28.6304C19.3564 28.5039 19.3032 28.3844 19.2137 28.2955C19.1241 28.2065 19.0047 28.1546 18.8789 28.1499C18.8137 28.1482 18.7488 28.1594 18.6878 28.1829C18.6269 28.2065 18.5712 28.2419 18.5239 28.2871C18.4765 28.3323 18.4385 28.3865 18.412 28.4465C18.3855 28.5065 18.371 28.5712 18.3693 28.6369C18.3549 30.3938 18.6408 32.14 19.2144 33.7993V33.8448C19.2837 34.0119 19.4161 34.1444 19.5825 34.2132C19.7488 34.282 19.9355 34.2814 20.1015 34.2117C20.2675 34.1419 20.3991 34.0087 20.4675 33.8412C20.5358 33.6738 20.5353 33.4859 20.466 33.3188C19.832 31.8319 19.4587 30.2456 19.3628 28.6304Z" fill="#4DE1E3"/>
<path d="M22.8659 37.5527C22.7377 37.3769 22.549 37.2556 22.3366 37.2124C22.1243 37.1691 21.9036 37.2071 21.7176 37.3189C21.5228 37.4397 21.3836 37.6333 21.3304 37.8573C21.2772 38.0812 21.3143 38.3173 21.4337 38.5137C22.3454 39.9904 23.3791 41.3872 24.5239 42.6891C24.5373 42.7059 24.5524 42.7211 24.5691 42.7346C24.6625 42.8393 24.7761 42.9237 24.903 42.9829C25.0298 43.0421 25.1673 43.0747 25.307 43.0788C25.4468 43.0828 25.5859 43.0583 25.716 43.0066C25.846 42.9549 25.9643 42.8772 26.0636 42.7781C26.1629 42.679 26.2411 42.5607 26.2936 42.4303C26.3461 42.2998 26.3717 42.16 26.3689 42.0193C26.3661 41.8786 26.3349 41.74 26.2773 41.6118C26.2196 41.4836 26.1367 41.3685 26.0335 41.2735C24.885 40.1163 23.826 38.8724 22.8659 37.5527Z" fill="#4DE1E3"/>
<path d="M33.6655 47.4035C32.2978 46.5074 30.9753 45.5528 29.685 44.5398C29.4428 44.3529 29.1383 44.2671 28.8348 44.3002C28.5313 44.3333 28.2522 44.4828 28.0554 44.7177C27.8586 44.9526 27.7593 45.2547 27.778 45.5614C27.7967 45.8681 27.9321 46.1557 28.156 46.3645C29.4305 47.5182 30.7657 48.6021 32.1559 49.6113L32.2075 49.6503C32.5035 49.8449 32.8642 49.9132 33.2102 49.8401C33.5562 49.767 33.8593 49.5586 34.0526 49.2607C34.246 48.9627 34.3138 48.5997 34.2412 48.2514C34.1686 47.9031 33.9615 47.5981 33.6655 47.4035Z" fill="#4DE1E3"/>
<path d="M42.362 52.2153L42.2781 52.1698L37.8783 49.9425L37.7879 49.897C37.4457 49.7128 37.0448 49.6729 36.6734 49.7861C36.302 49.8994 35.9905 50.1565 35.8074 50.5009C35.6243 50.8454 35.5847 51.2489 35.6972 51.6228C35.8097 51.9967 36.0651 52.3102 36.4074 52.4945L40.8524 55.053L40.9298 55.0984C41.306 55.2676 41.7325 55.2842 42.1206 55.1447C42.5086 55.0052 42.8283 54.7204 43.0129 54.3496C43.1975 53.9788 43.2328 53.5506 43.1116 53.1542C42.9903 52.7578 42.7218 52.4238 42.362 52.2218V52.2153Z" fill="#4DE1E3"/>
<path d="M51.5487 55.8063H51.4649C49.923 55.2283 48.3811 54.6699 46.8263 54.1179L46.736 54.0854C46.5187 53.998 46.2864 53.9546 46.0524 53.9575C45.8184 53.9605 45.5873 54.0098 45.3722 54.1026C45.1572 54.1955 44.9624 54.3301 44.799 54.4987C44.6356 54.6674 44.5068 54.8667 44.42 55.0855C44.3331 55.3042 44.2899 55.538 44.2929 55.7735C44.2958 56.0091 44.3448 56.2417 44.4371 56.4582C44.5293 56.6747 44.663 56.8707 44.8306 57.0352C44.9981 57.1996 45.1962 57.3293 45.4135 57.4167C46.9704 58.1007 48.5274 58.7847 50.0843 59.4687L50.1746 59.5076C50.6622 59.691 51.2023 59.672 51.676 59.4546C52.1496 59.2372 52.5181 58.8393 52.7003 58.3485C52.8825 57.8577 52.8636 57.3141 52.6476 56.8373C52.4317 56.3606 52.0364 55.9897 51.5487 55.8063Z" fill="#4DE1E3"/>
<path d="M61.9806 61.3908C62.0613 61.1636 62.0967 60.9225 62.0845 60.6815C62.0724 60.4405 62.0131 60.2043 61.91 59.9865C61.8069 59.7686 61.662 59.5734 61.4837 59.4121C61.3054 59.2508 61.0971 59.1266 60.871 59.0466H60.8065C59.2517 58.4427 57.6905 57.9297 56.1357 57.4102H56.0583H55.9873C55.7348 57.3291 55.4686 57.2999 55.2047 57.3242C54.9407 57.3485 54.6843 57.426 54.4506 57.5519C54.2169 57.6778 54.0107 57.8497 53.8443 58.0573C53.6778 58.2649 53.5544 58.504 53.4814 58.7605C53.4084 59.017 53.3873 59.2856 53.4193 59.5504C53.4514 59.8153 53.5359 60.0709 53.6679 60.3023C53.7999 60.5337 53.9767 60.736 54.1879 60.8973C54.399 61.0586 54.6401 61.1756 54.897 61.2414C56.5292 61.7155 58.1614 62.17 59.8065 62.6051C60.2541 62.7134 60.7258 62.6487 61.1284 62.4239C61.531 62.1991 61.8351 61.8304 61.9806 61.3908Z" fill="#4DE1E3"/>
<path d="M69.7803 64.4103C70.0706 64.4612 70.3692 64.3991 70.6156 64.2366C70.8621 64.0741 71.038 63.8235 71.1077 63.5354C71.1774 63.2472 71.1357 62.9432 70.9911 62.6849C70.8464 62.4266 70.6097 62.2332 70.3287 62.144L67.9481 61.3583C67.1611 61.0986 66.3676 60.8518 65.574 60.6115H65.5224L65.3547 60.5726C65.1543 60.5368 64.9489 60.541 64.7502 60.5851C64.5515 60.6292 64.3633 60.7122 64.1965 60.8295C64.0296 60.9468 63.8874 61.096 63.7778 61.2686C63.6683 61.4413 63.5936 61.6339 63.558 61.8356C63.5224 62.0373 63.5266 62.244 63.5704 62.4441C63.6142 62.6441 63.6967 62.8335 63.8133 63.0014C63.9298 63.1693 64.078 63.3125 64.2495 63.4228C64.421 63.5331 64.6124 63.6082 64.8128 63.6441C65.6514 63.7934 66.4837 63.9363 67.3224 64.0597L69.7803 64.4103Z" fill="#4DE1E3"/>
<path d="M77.5865 64.8259H77.7478L77.5994 64.7545C77.5996 64.7002 77.583 64.6472 77.5517 64.6029C77.5205 64.5586 77.4762 64.5254 77.4252 64.5077C76.6511 64.222 75.8704 63.9687 75.0898 63.709C75.0362 63.7029 74.9821 63.7029 74.9285 63.709C74.8333 63.6728 74.7309 63.6597 74.6297 63.6709C74.5285 63.6822 74.4314 63.7173 74.3463 63.7736C74.2612 63.8298 74.1905 63.9055 74.1401 63.9945C74.0896 64.0836 74.0608 64.1833 74.056 64.2857C74.0512 64.388 74.0705 64.4901 74.1124 64.5835C74.1542 64.6769 74.2175 64.759 74.2969 64.8231C74.3764 64.8872 74.4697 64.9314 74.5694 64.9522C74.6691 64.973 74.7723 64.9698 74.8705 64.9428C75.6963 64.9817 76.5156 65.0272 77.3478 65.0467C77.4063 65.0418 77.4615 65.0174 77.5047 64.9774C77.5479 64.9374 77.5767 64.8841 77.5865 64.8259Z" fill="#4DE1E3"/>
<path d="M61.8516 82.3912L59.5743 83.2873C59.551 83.2952 59.5295 83.3078 59.5112 83.3244C59.493 83.341 59.4782 83.3611 59.468 83.3836C59.4577 83.4061 59.4521 83.4305 59.4515 83.4552C59.4509 83.48 59.4554 83.5046 59.4646 83.5276C59.4719 83.5516 59.4839 83.574 59.5 83.5933C59.5161 83.6126 59.5358 83.6285 59.558 83.64C59.5803 83.6515 59.6046 83.6584 59.6296 83.6603C59.6545 83.6622 59.6796 83.659 59.7033 83.6509L62.0193 82.8457C62.0486 82.8342 62.0753 82.8171 62.098 82.7952C62.1206 82.7733 62.1387 82.7471 62.1513 82.7182C62.1639 82.6892 62.1707 82.658 62.1713 82.6264C62.1719 82.5948 62.1663 82.5634 62.1548 82.534C62.1317 82.476 62.0875 82.4289 62.0312 82.4024C61.9749 82.3759 61.9107 82.3719 61.8516 82.3912Z" fill="#4DE1E3"/>
<path d="M70.9739 78.5729L66.4579 80.521C66.3723 80.5554 66.3039 80.6227 66.2676 80.7079C66.2313 80.7932 66.2301 80.8894 66.2643 80.9756C66.2986 81.0617 66.3654 81.1306 66.4501 81.1671C66.5348 81.2036 66.6304 81.2048 66.7159 81.1704L71.348 79.3911C71.4019 79.3678 71.4507 79.334 71.4916 79.2916C71.5325 79.2493 71.5647 79.1992 71.5862 79.1443C71.6078 79.0893 71.6184 79.0307 71.6174 78.9716C71.6164 78.9126 71.6038 78.8543 71.5803 78.8002C71.5574 78.7434 71.5231 78.692 71.4794 78.6493C71.4358 78.6067 71.3838 78.5736 71.3268 78.5522C71.2697 78.5308 71.2089 78.5216 71.1482 78.5252C71.0874 78.5288 71.028 78.545 70.9739 78.5729Z" fill="#4DE1E3"/>
<path d="M79.8832 74.2481L75.4898 76.482C75.3641 76.545 75.2676 76.6547 75.2206 76.7879C75.1737 76.9212 75.18 77.0676 75.2382 77.1963C75.2668 77.2628 75.3084 77.3229 75.3605 77.373C75.4127 77.423 75.4744 77.4619 75.5418 77.4874C75.6093 77.5128 75.6812 77.5243 75.7532 77.5212C75.8251 77.518 75.8958 77.5003 75.9608 77.469L80.4767 75.4105C80.5525 75.3721 80.6201 75.3191 80.6756 75.2544C80.731 75.1898 80.7733 75.1148 80.8 75.0337C80.8266 74.9526 80.8372 74.867 80.831 74.7818C80.8248 74.6966 80.8019 74.6134 80.7638 74.5371C80.7257 74.4608 80.673 74.3928 80.6088 74.337C80.5445 74.2811 80.47 74.2386 80.3894 74.2117C80.3088 74.1849 80.2238 74.1743 80.1392 74.1806C80.0545 74.1868 79.9719 74.2098 79.8961 74.2481H79.8832Z" fill="#4DE1E3"/>
<path d="M88.3087 69.1312L88.2506 69.1701L84.1476 71.839L84.1024 71.8715C83.9313 71.9765 83.8087 72.1457 83.7615 72.3418C83.7143 72.5378 83.7464 72.7447 83.8508 72.917C83.9552 73.0892 84.1232 73.2126 84.318 73.2601C84.5128 73.3076 84.7184 73.2753 84.8895 73.1702L89.2054 70.6117H89.2377C89.4276 70.4877 89.5608 70.2929 89.608 70.07C89.6552 69.8471 89.6125 69.6146 89.4893 69.4234C89.3661 69.2322 89.1725 69.0981 88.9511 69.0506C88.7297 69.0031 88.4986 69.0461 88.3087 69.1701V69.1312Z" fill="#4DE1E3"/>
<path d="M96.8503 62.5596C96.7454 62.4741 96.6247 62.4103 96.4952 62.3718C96.3657 62.3334 96.2299 62.321 96.0956 62.3355C95.9614 62.35 95.8313 62.391 95.7128 62.4562C95.5943 62.5214 95.4898 62.6095 95.4052 62.7155C94.3885 63.9523 93.273 65.1033 92.0699 66.1571C91.8988 66.3275 91.798 66.5565 91.7876 66.7985C91.7772 67.0405 91.8579 67.2775 92.0136 67.4621C92.1693 67.6468 92.3886 67.7654 92.6275 67.7943C92.8663 67.8233 93.1073 67.7604 93.3021 67.6182C94.6292 66.5359 95.8617 65.341 96.9858 64.0467C97.0761 63.941 97.1443 63.8182 97.1865 63.6855C97.2286 63.5528 97.2438 63.413 97.2312 63.2742C97.2185 63.1355 97.1783 63.0008 97.1129 62.878C97.0475 62.7552 96.9582 62.6469 96.8503 62.5596Z" fill="#4DE1E3"/>
<path d="M100.289 53.2478C100.133 53.2326 99.9752 53.249 99.8253 53.2958C99.6755 53.3427 99.5365 53.4191 99.4164 53.5207C99.2962 53.6223 99.1974 53.7469 99.1257 53.8874C99.054 54.0278 99.0108 54.1813 98.9986 54.3387C98.8698 55.8672 98.4836 57.3626 97.8567 58.7609C97.7564 59.0247 97.7591 59.3171 97.8644 59.5791C97.9697 59.841 98.1697 60.053 98.4241 60.1725C98.6786 60.2919 98.9685 60.3098 99.2356 60.2225C99.5026 60.1353 99.7268 59.9495 99.8631 59.7024C100.659 58.0845 101.169 56.34 101.373 54.5465C101.388 54.3893 101.372 54.2307 101.325 54.0799C101.278 53.9291 101.202 53.7891 101.102 53.6682C101.001 53.5473 100.877 53.4478 100.737 53.3756C100.598 53.3035 100.445 53.26 100.289 53.2478Z" fill="#4DE1E3"/>
<path d="M98.5599 49.8321C98.6958 50.0928 98.9156 50.2994 99.1833 50.4179C99.451 50.5364 99.7508 50.5598 100.033 50.4843C100.316 50.4088 100.565 50.2389 100.739 50.0025C100.913 49.766 101.003 49.4769 100.992 49.1827C100.539 47.4712 99.874 45.8239 99.0115 44.2801V44.2411C98.8319 43.9337 98.5383 43.7107 98.1953 43.6212C97.8523 43.5317 97.488 43.583 97.1826 43.7638C96.8772 43.9446 96.6556 44.2402 96.5667 44.5854C96.4778 44.9307 96.5287 45.2973 96.7084 45.6048C97.4956 46.932 98.1175 48.3518 98.5599 49.8321Z" fill="#4DE1E3"/>
<path d="M95.9084 41.9423C96.2026 41.7083 96.3929 41.3666 96.4376 40.9919C96.4823 40.6171 96.3779 40.2398 96.1471 39.9423C95.0884 38.598 93.9554 37.3145 92.7537 36.0981V36.0656C92.6152 35.916 92.4477 35.7964 92.2616 35.7143C92.0755 35.6322 91.8746 35.5893 91.6714 35.5882C91.4682 35.5871 91.2669 35.6278 91.0799 35.7079C90.8929 35.788 90.7242 35.9057 90.584 36.0538C90.4439 36.202 90.3354 36.3774 90.2651 36.5693C90.1948 36.7612 90.1642 36.9656 90.1753 37.1698C90.1864 37.3741 90.2388 37.5739 90.3294 37.757C90.42 37.9401 90.5469 38.1026 90.7022 38.2345C91.8586 39.3387 92.9527 40.5072 93.9795 41.7345C94.2156 42.0078 94.5457 42.181 94.9034 42.2196C95.2612 42.2581 95.6202 42.1591 95.9084 41.9423Z" fill="#4DE1E3"/>
<path d="M89.0377 32.624L85.0637 29.4681L85.012 29.4291C84.656 29.2146 84.233 29.1422 83.8266 29.2263C83.4202 29.3104 83.0598 29.5448 82.8167 29.8833C82.5736 30.2218 82.4655 30.6397 82.5136 31.0545C82.5617 31.4694 82.7626 31.851 83.0766 32.124L83.1734 32.1889L87.0442 35.0656L87.141 35.137C87.4721 35.3902 87.8895 35.5006 88.3015 35.444C88.7134 35.3874 89.0862 35.1683 89.3377 34.8351C89.5892 34.5018 89.6989 34.0817 89.6427 33.667C89.5864 33.2523 89.3688 32.8772 89.0377 32.624Z" fill="#4DE1E3"/>
<path d="M80.8896 26.5849L76.5736 23.9485L76.5027 23.9095C76.2876 23.7767 76.0479 23.6892 75.7982 23.6524C75.5486 23.6156 75.294 23.6301 75.0501 23.6952C74.8062 23.7603 74.5779 23.8745 74.3792 24.031C74.1804 24.1875 74.0152 24.3829 73.8937 24.6056C73.7722 24.8282 73.6969 25.0733 73.6722 25.3261C73.6476 25.5789 73.6742 25.8341 73.7505 26.0762C73.8267 26.3183 73.951 26.5424 74.1158 26.7347C74.2806 26.9271 74.4825 27.0838 74.7092 27.1953L74.7995 27.2408L79.0445 29.5915L79.1348 29.6434C79.5371 29.8669 80.0105 29.9227 80.4532 29.7987C80.8959 29.6747 81.2726 29.3809 81.5024 28.9804C81.7322 28.5798 81.7967 28.1045 81.6821 27.6566C81.5676 27.2087 81.283 26.8239 80.8896 26.5849Z" fill="#4DE1E3"/>
<path d="M42.8265 14.1886C41.1237 14.1758 39.4217 14.2669 37.7299 14.4613C37.5605 14.4737 37.3951 14.5195 37.2433 14.5962C37.0914 14.6729 36.9561 14.7789 36.8449 14.9083C36.7338 15.0376 36.6491 15.1877 36.5956 15.35C36.5421 15.5123 36.5209 15.6836 36.5332 15.8542C36.5455 16.0247 36.591 16.1912 36.6672 16.344C36.7434 16.4969 36.8487 16.6331 36.9772 16.7449C37.1057 16.8568 37.2549 16.9421 37.4161 16.9959C37.5773 17.0498 37.7475 17.0711 37.917 17.0588C39.5105 17.0198 41.1427 17.0912 42.7104 17.2016H42.8007C43.2011 17.2016 43.585 17.0415 43.8681 16.7566C44.1513 16.4716 44.3103 16.0851 44.3103 15.6821C44.3103 15.2791 44.1513 14.8926 43.8681 14.6077C43.585 14.3227 43.2011 14.1626 42.8007 14.1626L42.8265 14.1886Z" fill="#4DE1E3"/>
<path d="M28.4722 18.5848C29.9992 18.1019 31.5607 17.7372 33.143 17.4938H33.2591C33.3942 17.4576 33.5209 17.3949 33.632 17.3094C33.7431 17.2238 33.8363 17.1171 33.9064 16.9953C33.9765 16.8735 34.022 16.739 34.0405 16.5995C34.0589 16.46 34.0499 16.3181 34.0139 16.1821C33.9779 16.0461 33.9156 15.9186 33.8306 15.8068C33.7457 15.695 33.6396 15.6011 33.5186 15.5306C33.3976 15.46 33.264 15.4142 33.1254 15.3956C32.9867 15.377 32.8458 15.3861 32.7107 15.4224C31.057 15.8519 29.4476 16.4389 27.9044 17.1756C27.7217 17.2558 27.5772 17.4044 27.5013 17.59C27.4255 17.7755 27.4243 17.9834 27.4981 18.1698C27.5718 18.3562 27.7147 18.5064 27.8965 18.5887C28.0782 18.671 28.2847 18.6789 28.4722 18.6107V18.5848Z" fill="#4DE1E3"/>
<path d="M48.8327 15.9678C48.6972 15.4808 48.5811 15.0068 48.4779 14.5392L48.1682 14.4873H47.9102C47.473 14.4132 47.0245 14.517 46.6634 14.7758C46.3022 15.0346 46.058 15.4272 45.9844 15.8672C45.9108 16.3072 46.0139 16.7586 46.271 17.1221C46.5281 17.4857 46.9182 17.7315 47.3553 17.8055H47.4844C48.0585 17.9289 48.6392 18.0393 49.2198 18.1562L49.5617 18.2276C49.2907 17.4549 49.0391 16.7081 48.8327 15.9678Z" fill="#4DE1E3"/>
<path d="M72.0964 21.5913L70.3287 20.7796L69.7545 22.1108C69.4255 22.8641 69.0707 23.5914 68.703 24.2927L70.4384 25.1044L70.5416 25.1433C71.002 25.3054 71.5062 25.2865 71.9534 25.0905C72.4005 24.8944 72.7577 24.5357 72.9534 24.086C73.149 23.6363 73.1688 23.1288 73.0087 22.6651C72.8486 22.2013 72.5205 21.8155 72.0899 21.5848L72.0964 21.5913Z" fill="#4DE1E3"/>
<path d="M54.2841 21.1498C54.6261 21.8835 54.9809 22.5784 55.3357 23.2537C58.9614 22.6996 62.6043 22.2667 66.2643 21.955C66.4514 21.5653 66.6385 21.1692 66.8192 20.7666C66.9998 20.364 67.0837 20.1173 67.2127 19.8575C62.8836 20.0586 58.568 20.4899 54.2841 21.1498Z" fill="#4DE1E3"/>
<path d="M107.637 32.4227C106.534 27.1109 100.857 24.6758 96.2632 23.0589C87.969 20.7118 79.3745 19.6176 70.7609 19.8121C70.5158 20.403 70.2384 21.0523 69.9352 21.7602C73.6641 21.5524 77.3973 21.4896 81.1348 21.5718C88.9216 21.916 105.263 23.2602 107.437 32.4811C108.508 41.9099 93.6053 48.7152 86.3668 51.7347C76.9321 55.36 67.183 58.0948 57.2453 59.9037C47.3231 61.7739 37.188 62.9298 27.1045 62.4297C19.3628 62.131 -2.02351 59.092 1.64732 47.6178C6.08587 37.1176 25.8658 30.2408 36.2719 27.3122C41.433 25.8966 46.6693 24.7277 51.981 23.8056C51.7294 23.2991 51.4778 22.7861 51.2262 22.2537C51.1359 22.0589 51.0584 21.877 50.9746 21.6822C40.7675 23.4855 30.7892 26.4167 21.2208 30.4227C-9.34583 44.0268 -6.44271 61.1115 27.0335 63.1051C51.8584 64.4038 79.5606 60.0596 100.07 45.0918C103.876 42.0073 108.392 37.7929 107.637 32.4227Z" fill="#4DE1E3"/>
<path d="M62.7548 17.7146L57.8904 16.2665C57.4342 16.2035 56.9707 16.3063 56.583 16.5564C56.1953 16.8065 55.9089 17.1875 55.7752 17.631C55.6415 18.0746 55.6694 18.5515 55.8537 18.9763C56.038 19.401 56.3667 19.7457 56.7808 19.9484L56.8905 19.9874L61.4903 21.4874L61.6064 21.5264H61.6452C61.8947 21.601 62.1563 21.6254 62.4152 21.5982C62.6741 21.5711 62.9251 21.4929 63.1539 21.368C63.3828 21.2432 63.585 21.0742 63.7489 20.8708C63.9129 20.6673 64.0354 20.4333 64.1096 20.1822C64.1837 19.9311 64.208 19.6677 64.181 19.4071C64.154 19.1465 64.0763 18.8939 63.9523 18.6635C63.8283 18.4332 63.6604 18.2297 63.4582 18.0646C63.2561 17.8996 63.0236 17.7763 62.7741 17.7016L62.7548 17.7146Z" fill="#4DE1E3"/>
<path d="M59.9936 48.0139C62.8262 48.0139 65.1224 45.6881 65.1224 42.819C65.1224 39.9499 62.8262 37.6241 59.9936 37.6241C57.161 37.6241 54.8647 39.9499 54.8647 42.819C54.8647 45.6881 57.161 48.0139 59.9936 48.0139Z" fill="#4DE1E3"/>
<path d="M141.081 26.6239H127.617V25.52H141.081C141.272 25.5214 141.461 25.4816 141.636 25.4031C141.801 25.329 141.952 25.2256 142.081 25.0979C142.21 24.9673 142.313 24.813 142.384 24.6433C142.462 24.4677 142.502 24.2772 142.5 24.0849C142.501 23.8905 142.462 23.698 142.384 23.5199C142.315 23.3493 142.212 23.1947 142.081 23.0654C141.954 22.9356 141.802 22.8319 141.636 22.7602C141.46 22.6869 141.271 22.6494 141.081 22.6498H129.572C129.239 22.6527 128.909 22.5841 128.604 22.4485C128.306 22.319 128.034 22.1339 127.804 21.903C127.576 21.6717 127.394 21.3983 127.269 21.0978C127.148 20.79 127.091 20.4608 127.101 20.1302C127.097 19.7907 127.165 19.4542 127.301 19.1432C127.425 18.8418 127.607 18.5682 127.836 18.338C128.066 18.1071 128.338 17.922 128.636 17.7925C128.942 17.66 129.271 17.5915 129.604 17.5912H143.036V18.6952H129.572C129.383 18.6932 129.195 18.7331 129.023 18.812C128.856 18.8853 128.705 18.9912 128.578 19.1237C128.449 19.2534 128.345 19.4051 128.269 19.5718C128.192 19.749 128.153 19.9402 128.153 20.1335C128.153 20.3268 128.192 20.518 128.269 20.6952C128.343 20.8668 128.448 21.0231 128.578 21.1562C128.71 21.2792 128.866 21.3722 129.036 21.429C129.209 21.5057 129.396 21.5434 129.585 21.5394H141.094C141.431 21.5383 141.765 21.6068 142.074 21.7407C142.37 21.8718 142.639 22.0567 142.868 22.2861C143.096 22.5203 143.277 22.7957 143.403 23.0978C143.531 23.4066 143.596 23.7376 143.596 24.0719C143.596 24.4062 143.531 24.7372 143.403 25.0459C143.15 25.6516 142.674 26.1354 142.074 26.3966C141.764 26.5442 141.425 26.6218 141.081 26.6239Z" fill="#4DE1E3"/>
<path d="M158.177 26.6239H147.21V29.1434H146.126V22.0783C146.122 21.474 146.241 20.8753 146.474 20.3186C146.929 19.2323 147.785 18.3662 148.861 17.9029C149.41 17.666 150 17.5445 150.597 17.5458H158.158C158.756 17.545 159.349 17.6665 159.9 17.9029C160.428 18.1339 160.908 18.4646 161.313 18.877C162.152 19.7284 162.623 20.8791 162.623 22.0783C162.623 23.2776 162.152 24.4283 161.313 25.2797C160.909 25.6943 160.429 26.0252 159.9 26.2537C159.357 26.495 158.77 26.621 158.177 26.6239ZM147.21 25.507H158.177C158.621 25.5104 159.061 25.4197 159.467 25.2407C159.87 25.0718 160.237 24.8246 160.545 24.5135C160.858 24.2012 161.112 23.8336 161.293 23.429C161.468 23.0072 161.558 22.5548 161.558 22.0978C161.558 21.6409 161.468 21.1884 161.293 20.7666C160.948 19.946 160.301 19.2919 159.487 18.9419C159.08 18.7609 158.641 18.668 158.196 18.6692H150.616C150.172 18.6697 149.733 18.7626 149.326 18.9419C148.926 19.1166 148.563 19.3655 148.255 19.6757C147.933 19.9896 147.676 20.3648 147.5 20.7796C147.322 21.1891 147.23 21.6313 147.229 22.0783L147.21 25.507Z" fill="#4DE1E3"/>
<path d="M181.686 26.6239H180.602V25.0524C180.193 25.5365 179.684 25.9263 179.112 26.1953C178.524 26.4775 177.88 26.6219 177.228 26.6174H169.68C169.081 26.6213 168.488 26.4997 167.938 26.2602C167.127 25.9083 166.436 25.3245 165.951 24.5812C165.465 23.8379 165.208 22.9677 165.209 22.0783C165.205 21.4761 165.323 20.8794 165.558 20.3251C166.016 19.2451 166.868 18.383 167.938 17.9159C168.489 17.6795 169.081 17.558 169.68 17.5588H181.686V26.6239ZM169.68 18.6692C169.236 18.6697 168.797 18.7626 168.39 18.9419C167.989 19.118 167.624 19.3667 167.312 19.6757C166.994 19.9917 166.74 20.3665 166.564 20.7796C166.385 21.198 166.293 21.6488 166.293 22.1043C166.293 22.5599 166.385 23.0106 166.564 23.429C166.915 24.2509 167.569 24.903 168.39 25.2472C168.798 25.4221 169.236 25.5126 169.68 25.5135H177.228C177.672 25.5169 178.112 25.4262 178.518 25.2472C178.921 25.0783 179.287 24.8311 179.596 24.5199C179.903 24.2056 180.148 23.8354 180.318 23.429C180.496 23.0195 180.589 22.5774 180.589 22.1303V18.6887L169.68 18.6692Z" fill="#4DE1E3"/>
<path d="M188.718 18.6692C188.274 18.6697 187.835 18.7626 187.428 18.9419C186.614 19.2919 185.966 19.946 185.621 20.7666C185.447 21.1884 185.357 21.6409 185.357 22.0978C185.357 22.5548 185.447 23.0072 185.621 23.429C185.796 23.8344 186.043 24.2041 186.35 24.5199C186.658 24.8331 187.024 25.0824 187.428 25.2537C187.835 25.4331 188.274 25.5259 188.718 25.5265H200.75V26.6239H188.718C188.119 26.6278 187.526 26.5062 186.976 26.2667C186.3 25.9738 185.706 25.519 185.244 24.942C184.783 24.365 184.469 23.6833 184.329 22.9561C184.189 22.2289 184.228 21.4783 184.442 20.7697C184.656 20.061 185.038 19.4157 185.557 18.89C185.964 18.4769 186.445 18.1462 186.976 17.9159C187.527 17.6795 188.119 17.558 188.718 17.5588H200.75V18.6627L188.718 18.6692Z" fill="#4DE1E3"/>
<path d="M219.356 24.1823C219.165 24.5498 218.924 24.8886 218.639 25.1888C218.362 25.4902 218.045 25.7523 217.698 25.968C217.355 26.1847 216.984 26.3509 216.594 26.4615C216.2 26.5735 215.792 26.6303 215.382 26.6304H207.795C207.196 26.6343 206.603 26.5126 206.053 26.2732C204.979 25.8086 204.125 24.9426 203.672 23.8576C203.44 23.3004 203.32 22.7021 203.32 22.0978C203.32 21.4935 203.44 20.8952 203.672 20.338C203.897 19.801 204.221 19.3117 204.627 18.8965C205.038 18.4851 205.521 18.1547 206.053 17.9224C206.604 17.686 207.196 17.5645 207.795 17.5653H215.356C215.952 17.5639 216.543 17.6855 217.091 17.9224C218.168 18.3857 219.024 19.2518 219.478 20.338C219.712 20.8948 219.83 21.4935 219.827 22.0978V22.6563H206.808V21.5394H218.71C218.651 21.1421 218.52 20.7592 218.323 20.4095C218.12 20.0596 217.861 19.7458 217.556 19.4809C217.254 19.2244 216.911 19.0203 216.543 18.877C216.165 18.7278 215.762 18.6528 215.356 18.6562H207.795C207.351 18.6567 206.911 18.7496 206.504 18.9289C205.69 19.2789 205.043 19.933 204.698 20.7536C204.523 21.1754 204.434 21.6279 204.434 22.0848C204.434 22.5418 204.523 22.9942 204.698 23.416C204.873 23.8214 205.12 24.1911 205.427 24.507C205.719 24.8193 206.067 25.0727 206.453 25.2537C206.86 25.4331 207.299 25.5259 207.743 25.5265H215.356C215.877 25.5299 216.392 25.4098 216.859 25.1758C217.33 24.9406 217.743 24.6009 218.065 24.1823H219.356Z" fill="#4DE1E3"/>
<path d="M144.713 43.6372H132.662C132.11 43.6416 131.563 43.5403 131.049 43.3385C130.553 43.141 130.096 42.855 129.701 42.4943C129.306 42.1323 128.975 41.7066 128.72 41.2345C128.463 40.7498 128.297 40.2215 128.23 39.6761H127.101V38.5786H128.223V32.0396H129.32V38.5786H144.713V39.6761H129.327C129.395 40.076 129.532 40.4607 129.733 40.8125C129.926 41.1547 130.177 41.4602 130.475 41.7151C131.081 42.2463 131.858 42.5391 132.662 42.5398H144.713V43.6372Z" fill="#4DE1E3"/>
<path d="M163.79 34.5786V35.715H151.739C151.295 35.717 150.857 35.8075 150.448 35.9812C150.048 36.1574 149.685 36.4086 149.377 36.7215C149.07 37.0343 148.823 37.4021 148.648 37.8059C148.467 38.228 148.374 38.6836 148.377 39.1436V43.6891H147.294V34.598H148.377V36.176C148.791 35.6904 149.301 35.2967 149.874 35.0201C150.464 34.7372 151.111 34.5928 151.764 34.598L163.79 34.5786Z" fill="#4DE1E3"/>
<path d="M182.828 43.6372H181.738V42.0592C181.329 42.5436 180.824 42.9354 180.254 43.2086C179.665 43.4875 179.021 43.6296 178.37 43.6242H170.815C170.219 43.6278 169.629 43.5084 169.08 43.2735C168.003 42.8103 167.147 41.9442 166.693 40.8579C166.46 40.301 166.342 39.7024 166.345 39.0981C166.34 38.4959 166.459 37.8991 166.693 37.3449C166.921 36.8083 167.247 36.3194 167.654 35.9033C168.064 35.4926 168.548 35.1642 169.08 34.9357C169.627 34.6957 170.218 34.574 170.815 34.5786H182.828V43.6372ZM170.815 35.715C170.372 35.7158 169.933 35.8063 169.525 35.9812C169.125 36.1574 168.761 36.4086 168.454 36.7215C168.147 37.0343 167.899 37.4021 167.725 37.8059C167.546 38.2255 167.454 38.6773 167.454 39.1338C167.454 39.5904 167.546 40.0422 167.725 40.4618C167.898 40.8685 168.145 41.2386 168.454 41.5527C168.763 41.8615 169.126 42.1103 169.525 42.2865C169.932 42.4659 170.371 42.5587 170.815 42.5592H178.37C178.814 42.5598 179.253 42.4692 179.66 42.293C180.065 42.1204 180.433 41.8713 180.744 41.5592C181.051 41.2434 181.298 40.8736 181.473 40.4683C181.646 40.0573 181.736 39.6158 181.738 39.1696V35.715H170.815Z" fill="#4DE1E3"/>
<path d="M197.421 43.6372H189.853C189.257 43.6408 188.667 43.5214 188.118 43.2865C187.041 42.8233 186.185 41.9572 185.731 40.8709C185.498 40.314 185.38 39.7154 185.383 39.1111V34.5656H186.454V39.1111C186.45 39.5691 186.542 40.0228 186.725 40.4423C186.898 40.8593 187.15 41.2385 187.466 41.5592C187.776 41.868 188.139 42.1168 188.537 42.293C188.944 42.4724 189.383 42.5652 189.828 42.5658H197.421C197.865 42.5652 198.304 42.4724 198.711 42.293C199.525 41.9431 200.173 41.289 200.518 40.4683C200.694 40.0471 200.784 39.5943 200.782 39.1371V34.5916H201.872V39.1371C201.873 39.7418 201.752 40.3404 201.518 40.8969C201.293 41.434 200.969 41.9232 200.563 42.3385C200.152 42.7498 199.668 43.0802 199.137 43.3125C198.592 43.5345 198.009 43.6449 197.421 43.6372Z" fill="#4DE1E3"/>
<path d="M220.452 41.1956C220.065 41.9246 219.496 42.5399 218.801 42.9813C218.454 43.1943 218.081 43.3602 217.691 43.4748C217.296 43.585 216.888 43.6397 216.478 43.6372H208.917C208.321 43.6407 207.73 43.5214 207.182 43.2865C206.105 42.8233 205.249 41.9571 204.795 40.8709C204.565 40.3131 204.446 39.7151 204.446 39.1111C204.446 38.5072 204.565 37.9092 204.795 37.3513C205.021 36.8115 205.347 36.32 205.756 35.9033C206.165 35.4911 206.649 35.1625 207.182 34.9357C207.729 34.6957 208.32 34.574 208.917 34.5786H216.478C217.077 34.5747 217.67 34.6963 218.22 34.9357C218.75 35.1641 219.232 35.4925 219.639 35.9033C220.048 36.32 220.375 36.8115 220.601 37.3513C220.834 37.9081 220.953 38.5068 220.949 39.1111V39.6696H207.93V38.5527H219.814C219.758 38.1544 219.627 37.7707 219.427 37.4228C219.24 37.0799 218.998 36.7705 218.71 36.5072C218.411 36.246 218.068 36.0395 217.698 35.8968C217.318 35.7528 216.916 35.6801 216.511 35.6825H208.917C208.474 35.6833 208.035 35.7739 207.627 35.9487C207.226 36.1233 206.862 36.3747 206.556 36.689C206.239 36.9985 205.985 37.3667 205.808 37.7734C205.629 38.1953 205.537 38.6492 205.537 39.1079C205.537 39.5665 205.629 40.0204 205.808 40.4423C205.973 40.859 206.218 41.2386 206.53 41.5592C206.838 41.8694 207.202 42.1184 207.601 42.293C208.008 42.4724 208.447 42.5652 208.891 42.5657H216.452C216.975 42.571 217.491 42.4484 217.956 42.2086C218.419 41.9746 218.823 41.637 219.136 41.2215L220.452 41.1956Z" fill="#4DE1E3"/>
<path d="M227.981 43.6372C227.383 43.6402 226.79 43.5209 226.239 43.2865C225.709 43.0563 225.227 42.7256 224.82 42.3125C224.406 41.8905 224.079 41.3906 223.858 40.8412C223.636 40.2919 223.525 39.7039 223.53 39.1111V34.5656H224.613V39.1111C224.609 39.5691 224.702 40.0228 224.884 40.4423C225.046 40.8564 225.285 41.2355 225.588 41.5592C225.899 41.8682 226.264 42.1169 226.665 42.293C227.072 42.4724 227.511 42.5652 227.955 42.5658H240V43.6372H227.981Z" fill="#4DE1E3"/>
<path d="M132.088 59.8453C129.63 59.8453 128.41 59.2349 128.41 58.0336V56.0855C128.41 54.8712 129.63 54.2673 132.088 54.2673H137.004C137.488 54.2673 137.746 54.4231 137.746 54.7348C137.746 55.0465 137.488 55.2023 137.004 55.2023H132.03C130.643 55.2023 129.933 55.4881 129.933 56.0725V58.0206C129.933 58.592 130.643 58.8907 132.03 58.8907H137.004C137.488 58.8907 137.746 59.0401 137.746 59.3453C137.746 59.6505 137.488 59.8193 137.004 59.8193L132.088 59.8453Z" fill="#4DE1E3"/>
<path d="M143.61 59.8453C141.152 59.8453 139.933 59.2349 139.933 58.0336V56.0855C139.933 54.8712 141.152 54.2673 143.61 54.2673H146.352C148.81 54.2673 150.029 54.8712 150.029 56.0855V58.0336C150.029 59.2349 148.81 59.8453 146.352 59.8453H143.61ZM148.513 56.092C148.513 55.5075 147.803 55.2218 146.397 55.2218H143.552C142.165 55.2218 141.449 55.5075 141.449 56.092V58.0401C141.449 58.6115 142.165 58.9102 143.552 58.9102H146.397C147.803 58.9102 148.513 58.6115 148.513 58.0401V56.092Z" fill="#4DE1E3"/>
<path d="M152.661 56.105C152.661 54.8885 153.883 54.2824 156.326 54.2867H157.422C157.9 54.2867 158.145 54.4426 158.145 54.7543C158.145 55.066 157.9 55.2218 157.422 55.2218H156.268C154.874 55.2218 154.164 55.5075 154.164 56.079V59.4167C154.164 59.7414 153.913 59.8972 153.416 59.8972C152.919 59.8972 152.661 59.7284 152.661 59.4167V56.105Z" fill="#4DE1E3"/>
<path d="M161.642 59.8453V61.3518C161.642 61.67 161.383 61.8323 160.887 61.8323C160.39 61.8323 160.132 61.67 160.132 61.3518V56.105C160.132 54.8885 161.353 54.2824 163.796 54.2867H166.654C169.093 54.2867 170.319 54.8906 170.319 56.105V58.053C170.319 59.2544 169.093 59.8648 166.654 59.8648L161.642 59.8453ZM161.642 58.9167H166.693C168.099 58.9167 168.796 58.618 168.796 58.0465V56.0985C168.796 55.514 168.099 55.2283 166.693 55.2283H163.738C162.351 55.2283 161.642 55.514 161.642 56.0985V58.9167Z" fill="#4DE1E3"/>
<path d="M176.596 59.8453C174.138 59.8453 172.919 59.2349 172.919 58.0336V56.0855C172.919 54.8712 174.138 54.2673 176.596 54.2673H179.357C181.815 54.2673 183.034 54.8712 183.034 56.0855V58.0336C183.034 59.2349 181.815 59.8453 179.357 59.8453H176.596ZM181.499 56.092C181.499 55.5075 180.789 55.2218 179.383 55.2218H176.538C175.151 55.2218 174.441 55.5075 174.441 56.092V58.0401C174.441 58.6115 175.151 58.9102 176.538 58.9102H179.357C180.763 58.9102 181.473 58.6115 181.473 58.0401L181.499 56.092Z" fill="#4DE1E3"/>
<path d="M185.647 56.105C185.647 54.8885 186.869 54.2824 189.312 54.2867H190.408C190.886 54.2867 191.131 54.4426 191.131 54.7543C191.131 55.066 190.886 55.2218 190.408 55.2218H189.253C187.86 55.2218 187.15 55.5075 187.15 56.079V59.4167C187.15 59.7414 186.899 59.8972 186.402 59.8972C185.905 59.8972 185.647 59.7284 185.647 59.4167V56.105Z" fill="#4DE1E3"/>
<path d="M194.131 59.8453C192.101 59.8453 191.086 59.3366 191.086 58.3193V57.6699C191.086 56.6656 192.101 56.1634 194.131 56.1634H200.163V55.9881C200.163 55.4491 199.582 55.1893 198.421 55.1893H196.414C195.944 55.1893 195.705 55.04 195.705 54.7413C195.705 54.4426 195.944 54.2867 196.414 54.2867H198.421C200.576 54.2867 201.647 54.8582 201.647 55.9881V58.2284C201.647 59.3063 200.627 59.8453 198.55 59.8453H194.131ZM200.163 58.1959V56.9491H194.24C193.131 56.9491 192.582 57.1894 192.582 57.6504V58.2414C192.582 58.7089 193.131 58.9492 194.24 58.9492H198.46C199.595 58.9492 200.163 58.7024 200.163 58.1959Z" fill="#4DE1E3"/>
<path d="M206.601 55.1959V59.4167C206.601 59.7414 206.343 59.8972 205.859 59.8972C205.375 59.8972 205.098 59.7414 205.098 59.4167V55.1959H204.517C204.066 55.1959 203.821 55.0465 203.821 54.7543C203.821 54.4621 204.066 54.3062 204.517 54.3062H205.104V53.2802C205.104 52.9685 205.343 52.7997 205.84 52.7997C206.337 52.7997 206.608 52.9685 206.608 53.2802V54.3322H209.033C209.498 54.3322 209.743 54.4816 209.743 54.7803C209.743 55.079 209.498 55.2218 209.033 55.2218L206.601 55.1959Z" fill="#4DE1E3"/>
<path d="M212.736 53.4166C212.182 53.4166 211.917 53.2348 211.917 52.8711C211.917 52.5075 212.182 52.3192 212.736 52.3192C213.291 52.3192 213.562 52.501 213.562 52.8711C213.562 53.2413 213.278 53.4166 212.736 53.4166ZM211.988 54.7153C211.988 54.4036 212.24 54.2348 212.736 54.2348C213.233 54.2348 213.491 54.4036 213.491 54.7153V59.4167C213.491 59.7414 213.233 59.8972 212.736 59.8972C212.24 59.8972 211.988 59.7414 211.988 59.4167V54.7153Z" fill="#4DE1E3"/>
<path d="M219.827 59.8453C217.369 59.8453 216.149 59.2349 216.149 58.0336V56.0855C216.149 54.8712 217.369 54.2673 219.827 54.2673H222.581C225.039 54.2673 226.259 54.8712 226.259 56.0855V58.0336C226.259 59.2349 225.039 59.8453 222.581 59.8453H219.827ZM224.73 56.092C224.73 55.5075 224.013 55.2218 222.614 55.2218H219.768C218.375 55.2218 217.665 55.5075 217.665 56.092V58.0401C217.665 58.6115 218.375 58.9102 219.768 58.9102H222.614C224.013 58.9102 224.73 58.6115 224.73 58.0401V56.092Z" fill="#4DE1E3"/>
<path d="M237.419 56.105C237.419 55.5075 236.71 55.2218 235.303 55.2218H232.465C231.071 55.2218 230.362 55.5075 230.362 56.105V59.4167C230.362 59.7414 230.104 59.8972 229.607 59.8972C229.11 59.8972 228.858 59.7414 228.858 59.4167V56.105C228.858 54.8885 230.08 54.2824 232.523 54.2867H235.265C237.703 54.2867 238.929 54.8906 238.929 56.105V59.4167C238.929 59.7414 238.671 59.8972 238.174 59.8972C237.678 59.8972 237.419 59.7414 237.419 59.4167V56.105Z" fill="#4DE1E3"/>
<path d="M58.8904 0.155847C57.2527 0.421435 55.7193 1.13588 54.4583 2.22082C53.6665 2.88952 52.9906 3.68611 52.4584 4.57801C51.7249 5.80396 51.2833 7.18416 51.1681 8.61055C51.0414 10.8056 51.3102 13.0055 51.9616 15.1042C52.5379 17.0905 53.2759 19.0257 54.168 20.89C55.0751 22.8708 56.1162 24.7866 57.284 26.6239C58.155 27.9746 59.0969 29.3317 60.0065 30.6369L60.4904 31.3318C61.5355 29.9226 62.5032 28.494 63.387 27.0849C64.676 25.0664 65.8228 22.9595 66.8192 20.7796C67.5482 19.1237 68.0643 17.8575 68.4965 16.6627C69.1917 14.75 69.6258 12.7512 69.7868 10.721C69.9558 9.0642 69.7234 7.39086 69.1094 5.84427C68.4888 4.3548 67.5006 3.04949 66.2385 2.05199C65.2064 1.20926 64.001 0.608149 62.7096 0.292213C62.3419 0.207796 61.9419 0.14286 61.5355 0.0779236L61.0645 0H59.8646L59.6517 0.0324681L58.8904 0.155847ZM60.4452 2.83122H60.4904C62.251 2.83122 63.9395 3.53521 65.1845 4.78832C66.4294 6.04143 67.1288 7.741 67.1288 9.51317C67.1288 11.2853 66.4294 12.9849 65.1845 14.238C63.9395 15.4911 62.251 16.1951 60.4904 16.1951H60.4517C58.691 16.1951 57.0025 15.4911 55.7575 14.238C54.5126 12.9849 53.8132 11.2853 53.8132 9.51317C53.8132 7.741 54.5126 6.04143 55.7575 4.78832C57.0025 3.53521 58.691 2.83122 60.4517 2.83122H60.4452Z" fill="#4DE1E3"/>
</svg>
